<mxfile host="app.diagrams.net" agent="Mozilla/5.0 (Windows NT 10.0; Win64; x64) AppleWebKit/537.36 (KHTML, like Gecko) Chrome/131.0.0.0 Safari/537.36" version="25.0.3">
  <diagram name="Page-1" id="yYHOyxiwq4Ik4QZnYWhq">
    <mxGraphModel dx="818" dy="508" grid="1" gridSize="10" guides="1" tooltips="1" connect="1" arrows="1" fold="1" page="1" pageScale="1" pageWidth="827" pageHeight="1169" math="0" shadow="0">
      <root>
        <mxCell id="0" />
        <mxCell id="1" parent="0" />
        <mxCell id="bZ-SgUq-r8ORHd7zkvNV-1" value="User" style="shape=umlActor;verticalLabelPosition=bottom;verticalAlign=top;html=1;fontColor=#FF3333;" parent="1" vertex="1">
          <mxGeometry x="30" y="367" width="80" height="380" as="geometry" />
        </mxCell>
        <mxCell id="bZ-SgUq-r8ORHd7zkvNV-3" value="Log in/ sign up" style="ellipse;whiteSpace=wrap;html=1;align=center;fontColor=#000000;labelBackgroundColor=none;shadow=0;fillColor=#FF3333;" parent="1" vertex="1">
          <mxGeometry x="260" y="170" width="140" height="70" as="geometry" />
        </mxCell>
        <mxCell id="bZ-SgUq-r8ORHd7zkvNV-4" value="Enter your password" style="ellipse;whiteSpace=wrap;html=1;fillColor=#B9E0A5;" parent="1" vertex="1">
          <mxGeometry x="550" y="90" width="140" height="70" as="geometry" />
        </mxCell>
        <mxCell id="JztDZaQOo3jZukqDv95O-3" value="" style="line;strokeWidth=1;fillColor=none;align=left;verticalAlign=middle;spacingTop=-1;spacingLeft=3;spacingRight=3;rotatable=0;labelPosition=right;points=[];portConstraint=eastwest;strokeColor=inherit;" parent="1" vertex="1">
          <mxGeometry x="110" y="130" width="40" as="geometry" />
        </mxCell>
        <mxCell id="JztDZaQOo3jZukqDv95O-14" value="" style="endArrow=none;html=1;rounded=0;exitX=0;exitY=0.671;exitDx=0;exitDy=0;exitPerimeter=0;entryX=0.913;entryY=0.342;entryDx=0;entryDy=0;entryPerimeter=0;" parent="1" source="bZ-SgUq-r8ORHd7zkvNV-3" target="bZ-SgUq-r8ORHd7zkvNV-1" edge="1">
          <mxGeometry width="50" height="50" relative="1" as="geometry">
            <mxPoint x="183.1644315727957" y="313.225447843687" as="sourcePoint" />
            <mxPoint x="120" y="273" as="targetPoint" />
            <Array as="points" />
          </mxGeometry>
        </mxCell>
        <mxCell id="JztDZaQOo3jZukqDv95O-17" value="&amp;lt;&amp;lt;include&amp;gt;&amp;gt;" style="endArrow=open;endSize=12;dashed=1;html=1;rounded=0;exitX=1;exitY=0.5;exitDx=0;exitDy=0;entryX=0.036;entryY=0.686;entryDx=0;entryDy=0;entryPerimeter=0;" parent="1" source="bZ-SgUq-r8ORHd7zkvNV-3" target="bZ-SgUq-r8ORHd7zkvNV-4" edge="1">
          <mxGeometry width="160" relative="1" as="geometry">
            <mxPoint x="370" y="174.5" as="sourcePoint" />
            <mxPoint x="540" y="140" as="targetPoint" />
            <Array as="points">
              <mxPoint x="540" y="140" />
            </Array>
          </mxGeometry>
        </mxCell>
        <mxCell id="JztDZaQOo3jZukqDv95O-19" value="&#xa;View Profile&#xa;&#xa;" style="ellipse;whiteSpace=wrap;html=1;align=center;fontColor=#000000;labelBackgroundColor=none;fillColor=#FF3333;" parent="1" vertex="1">
          <mxGeometry x="260" y="300" width="140" height="70" as="geometry" />
        </mxCell>
        <mxCell id="JztDZaQOo3jZukqDv95O-34" value="" style="endArrow=none;html=1;rounded=0;exitX=0.525;exitY=0.289;exitDx=0;exitDy=0;exitPerimeter=0;" parent="1" edge="1">
          <mxGeometry width="50" height="50" relative="1" as="geometry">
            <mxPoint x="72" y="477.81999999999994" as="sourcePoint" />
            <mxPoint x="282.74905765501944" y="361.8231894210942" as="targetPoint" />
            <Array as="points" />
          </mxGeometry>
        </mxCell>
        <mxCell id="JztDZaQOo3jZukqDv95O-37" value="review my preferences" style="ellipse;whiteSpace=wrap;html=1;fillColor=#FFCE9F;" parent="1" vertex="1">
          <mxGeometry x="520" y="360" width="140" height="70" as="geometry" />
        </mxCell>
        <mxCell id="JztDZaQOo3jZukqDv95O-41" value="&amp;lt;&amp;lt;extend&amp;gt;&amp;gt;" style="html=1;verticalAlign=bottom;endArrow=open;dashed=1;endSize=8;curved=0;rounded=0;exitX=0;exitY=0.5;exitDx=0;exitDy=0;entryX=1;entryY=0.5;entryDx=0;entryDy=0;" parent="1" source="JztDZaQOo3jZukqDv95O-37" target="JztDZaQOo3jZukqDv95O-19" edge="1">
          <mxGeometry x="-0.1371" y="6" relative="1" as="geometry">
            <mxPoint x="480" y="334.5" as="sourcePoint" />
            <mxPoint x="400" y="334.5" as="targetPoint" />
            <Array as="points" />
            <mxPoint as="offset" />
          </mxGeometry>
        </mxCell>
        <mxCell id="JztDZaQOo3jZukqDv95O-42" value="&amp;lt;&amp;lt;include&amp;gt;&amp;gt;" style="endArrow=open;endSize=12;dashed=1;html=1;rounded=0;exitX=1;exitY=0.5;exitDx=0;exitDy=0;entryX=0.036;entryY=0.686;entryDx=0;entryDy=0;entryPerimeter=0;" parent="1" edge="1">
          <mxGeometry x="0.0302" y="-2" width="160" relative="1" as="geometry">
            <mxPoint x="400" y="205" as="sourcePoint" />
            <mxPoint x="555" y="138" as="targetPoint" />
            <Array as="points">
              <mxPoint x="540" y="140" />
            </Array>
            <mxPoint as="offset" />
          </mxGeometry>
        </mxCell>
        <mxCell id="JztDZaQOo3jZukqDv95O-43" value="personal information" style="ellipse;whiteSpace=wrap;html=1;fillColor=#B9E0A5;" parent="1" vertex="1">
          <mxGeometry x="470" y="200" width="140" height="70" as="geometry" />
        </mxCell>
        <mxCell id="JztDZaQOo3jZukqDv95O-44" value="&amp;lt;&amp;lt;include" style="endArrow=open;endSize=12;dashed=1;html=1;rounded=0;entryX=0;entryY=0.5;entryDx=0;entryDy=0;exitX=0.986;exitY=0.343;exitDx=0;exitDy=0;exitPerimeter=0;" parent="1" source="JztDZaQOo3jZukqDv95O-19" target="JztDZaQOo3jZukqDv95O-43" edge="1">
          <mxGeometry width="160" relative="1" as="geometry">
            <mxPoint x="410" y="280" as="sourcePoint" />
            <mxPoint x="570" y="280" as="targetPoint" />
          </mxGeometry>
        </mxCell>
        <mxCell id="JztDZaQOo3jZukqDv95O-46" value="Floor plans" style="ellipse;whiteSpace=wrap;html=1;fontColor=#000000;fillColor=#FF3333;" parent="1" vertex="1">
          <mxGeometry x="260" y="410" width="140" height="70" as="geometry" />
        </mxCell>
        <mxCell id="JztDZaQOo3jZukqDv95O-49" value="" style="endArrow=none;html=1;rounded=0;exitX=0.513;exitY=0.618;exitDx=0;exitDy=0;exitPerimeter=0;entryX=0;entryY=0.5;entryDx=0;entryDy=0;" parent="1" source="bZ-SgUq-r8ORHd7zkvNV-1" target="JztDZaQOo3jZukqDv95O-46" edge="1">
          <mxGeometry width="50" height="50" relative="1" as="geometry">
            <mxPoint x="130" y="510" as="sourcePoint" />
            <mxPoint x="190" y="460" as="targetPoint" />
          </mxGeometry>
        </mxCell>
        <mxCell id="JztDZaQOo3jZukqDv95O-50" value="add funiture and decore to the plan" style="ellipse;whiteSpace=wrap;html=1;fillColor=#B9E0A5;" parent="1" vertex="1">
          <mxGeometry x="530" y="450" width="140" height="70" as="geometry" />
        </mxCell>
        <mxCell id="JztDZaQOo3jZukqDv95O-51" value="&amp;lt;&amp;lt;include&amp;gt;&amp;gt;" style="endArrow=open;endSize=12;dashed=1;html=1;rounded=0;" parent="1" source="JztDZaQOo3jZukqDv95O-46" target="JztDZaQOo3jZukqDv95O-50" edge="1">
          <mxGeometry width="160" relative="1" as="geometry">
            <mxPoint x="310" y="520" as="sourcePoint" />
            <mxPoint x="470" y="520" as="targetPoint" />
          </mxGeometry>
        </mxCell>
        <mxCell id="JztDZaQOo3jZukqDv95O-54" value="My designs" style="ellipse;whiteSpace=wrap;html=1;align=center;fillColor=#B9E0A5;" parent="1" vertex="1">
          <mxGeometry x="620" y="250" width="140" height="70" as="geometry" />
        </mxCell>
        <mxCell id="JztDZaQOo3jZukqDv95O-55" value="" style="endArrow=none;html=1;rounded=0;exitX=0.663;exitY=0.768;exitDx=0;exitDy=0;exitPerimeter=0;entryX=0;entryY=0.5;entryDx=0;entryDy=0;" parent="1" source="bZ-SgUq-r8ORHd7zkvNV-1" target="JztDZaQOo3jZukqDv95O-52" edge="1">
          <mxGeometry width="50" height="50" relative="1" as="geometry">
            <mxPoint x="180" y="560" as="sourcePoint" />
            <mxPoint x="230" y="510" as="targetPoint" />
          </mxGeometry>
        </mxCell>
        <mxCell id="JztDZaQOo3jZukqDv95O-57" value="&amp;lt;&amp;lt;include&amp;gt;&amp;gt;" style="endArrow=open;endSize=12;dashed=1;html=1;rounded=0;entryX=0;entryY=0.5;entryDx=0;entryDy=0;exitX=1.014;exitY=0.371;exitDx=0;exitDy=0;exitPerimeter=0;" parent="1" source="JztDZaQOo3jZukqDv95O-19" target="JztDZaQOo3jZukqDv95O-54" edge="1">
          <mxGeometry width="160" relative="1" as="geometry">
            <mxPoint x="390" y="314.5" as="sourcePoint" />
            <mxPoint x="550" y="314.5" as="targetPoint" />
          </mxGeometry>
        </mxCell>
        <mxCell id="JztDZaQOo3jZukqDv95O-58" value="save or sharing the design" style="ellipse;whiteSpace=wrap;html=1;fillColor=#B9E0A5;" parent="1" vertex="1">
          <mxGeometry x="580" y="540" width="140" height="70" as="geometry" />
        </mxCell>
        <mxCell id="JztDZaQOo3jZukqDv95O-59" value="&amp;lt;&amp;lt;include&amp;gt;&amp;gt;" style="endArrow=open;endSize=12;dashed=1;html=1;rounded=0;entryX=-0.021;entryY=0.414;entryDx=0;entryDy=0;entryPerimeter=0;exitX=1;exitY=1;exitDx=0;exitDy=0;" parent="1" source="JztDZaQOo3jZukqDv95O-52" target="JztDZaQOo3jZukqDv95O-58" edge="1">
          <mxGeometry width="160" relative="1" as="geometry">
            <mxPoint x="360" y="570" as="sourcePoint" />
            <mxPoint x="520" y="570" as="targetPoint" />
          </mxGeometry>
        </mxCell>
        <mxCell id="JztDZaQOo3jZukqDv95O-61" value="View 3D designs" style="ellipse;whiteSpace=wrap;html=1;spacing=2;spacingTop=0;labelPosition=center;verticalLabelPosition=middle;align=center;verticalAlign=middle;fillColor=#B9E0A5;" parent="1" vertex="1">
          <mxGeometry x="560" y="720" width="140" height="70" as="geometry" />
        </mxCell>
        <mxCell id="JztDZaQOo3jZukqDv95O-62" value="&#xa;Furniture and Decoration Library&#xa;&#xa;" style="ellipse;whiteSpace=wrap;html=1;spacing=1;fillColor=#FF3333;" parent="1" vertex="1">
          <mxGeometry x="230" y="740" width="170" height="70" as="geometry" />
        </mxCell>
        <mxCell id="JztDZaQOo3jZukqDv95O-63" value="" style="endArrow=none;html=1;rounded=0;exitX=0.838;exitY=0.905;exitDx=0;exitDy=0;exitPerimeter=0;entryX=0.079;entryY=0.257;entryDx=0;entryDy=0;entryPerimeter=0;" parent="1" source="bZ-SgUq-r8ORHd7zkvNV-1" target="JztDZaQOo3jZukqDv95O-62" edge="1">
          <mxGeometry width="50" height="50" relative="1" as="geometry">
            <mxPoint x="320" y="790" as="sourcePoint" />
            <mxPoint x="370" y="740" as="targetPoint" />
          </mxGeometry>
        </mxCell>
        <mxCell id="JztDZaQOo3jZukqDv95O-66" value="&#xa;Scan Rooms&#xa;&#xa;" style="ellipse;whiteSpace=wrap;html=1;fillColor=#FF3333;" parent="1" vertex="1">
          <mxGeometry x="180" y="880" width="140" height="70" as="geometry" />
        </mxCell>
        <mxCell id="JztDZaQOo3jZukqDv95O-67" value="" style="endArrow=none;html=1;rounded=0;entryX=0.55;entryY=0.634;entryDx=0;entryDy=0;entryPerimeter=0;exitX=0.029;exitY=0.3;exitDx=0;exitDy=0;exitPerimeter=0;" parent="1" source="JztDZaQOo3jZukqDv95O-66" target="bZ-SgUq-r8ORHd7zkvNV-1" edge="1">
          <mxGeometry width="50" height="50" relative="1" as="geometry">
            <mxPoint x="120" y="1000" as="sourcePoint" />
            <mxPoint x="170" y="950" as="targetPoint" />
          </mxGeometry>
        </mxCell>
        <mxCell id="JztDZaQOo3jZukqDv95O-68" value="camera" style="ellipse;whiteSpace=wrap;html=1;fillColor=#B9E0A5;" parent="1" vertex="1">
          <mxGeometry x="450" y="910" width="140" height="70" as="geometry" />
        </mxCell>
        <mxCell id="JztDZaQOo3jZukqDv95O-69" value="&amp;lt;&amp;lt;include&amp;gt;&amp;gt;" style="endArrow=open;endSize=12;dashed=1;html=1;rounded=0;exitX=1;exitY=0.5;exitDx=0;exitDy=0;entryX=0.029;entryY=0.414;entryDx=0;entryDy=0;entryPerimeter=0;" parent="1" source="JztDZaQOo3jZukqDv95O-66" target="JztDZaQOo3jZukqDv95O-68" edge="1">
          <mxGeometry width="160" relative="1" as="geometry">
            <mxPoint x="389.99999999999994" y="952.99" as="sourcePoint" />
            <mxPoint x="530" y="950" as="targetPoint" />
            <Array as="points" />
          </mxGeometry>
        </mxCell>
        <mxCell id="JztDZaQOo3jZukqDv95O-70" value="add comment" style="ellipse;whiteSpace=wrap;html=1;fillColor=#FFCE9F;" parent="1" vertex="1">
          <mxGeometry x="480" y="620" width="140" height="70" as="geometry" />
        </mxCell>
        <mxCell id="JztDZaQOo3jZukqDv95O-73" value="&amp;lt;&amp;lt;extend&amp;gt;&amp;gt;" style="html=1;verticalAlign=bottom;endArrow=open;dashed=1;endSize=8;curved=0;rounded=0;entryX=0.621;entryY=1.029;entryDx=0;entryDy=0;entryPerimeter=0;exitX=0.086;exitY=0.214;exitDx=0;exitDy=0;exitPerimeter=0;" parent="1" source="JztDZaQOo3jZukqDv95O-70" target="JztDZaQOo3jZukqDv95O-52" edge="1">
          <mxGeometry relative="1" as="geometry">
            <mxPoint x="440" y="710" as="sourcePoint" />
            <mxPoint x="360" y="710" as="targetPoint" />
          </mxGeometry>
        </mxCell>
        <mxCell id="JztDZaQOo3jZukqDv95O-78" value="&amp;lt;&amp;lt;extend&amp;gt;&amp;gt;" style="html=1;verticalAlign=bottom;endArrow=open;dashed=1;endSize=8;curved=0;rounded=0;exitX=0;exitY=0.5;exitDx=0;exitDy=0;" parent="1" source="JztDZaQOo3jZukqDv95O-77" target="JztDZaQOo3jZukqDv95O-62" edge="1">
          <mxGeometry x="0.0914" y="8" relative="1" as="geometry">
            <mxPoint x="480" y="940" as="sourcePoint" />
            <mxPoint x="400" y="940" as="targetPoint" />
            <mxPoint as="offset" />
          </mxGeometry>
        </mxCell>
        <mxCell id="JztDZaQOo3jZukqDv95O-79" value="&amp;lt;&amp;lt;include&amp;gt;&amp;gt;" style="endArrow=open;endSize=12;dashed=1;html=1;rounded=0;exitX=1;exitY=0.5;exitDx=0;exitDy=0;" parent="1" source="JztDZaQOo3jZukqDv95O-62" target="JztDZaQOo3jZukqDv95O-61" edge="1">
          <mxGeometry width="160" relative="1" as="geometry">
            <mxPoint x="420" y="780" as="sourcePoint" />
            <mxPoint x="580" y="780" as="targetPoint" />
          </mxGeometry>
        </mxCell>
        <mxCell id="JztDZaQOo3jZukqDv95O-80" value="upload and view image" style="ellipse;whiteSpace=wrap;html=1;fillColor=#B9E0A5;" parent="1" vertex="1">
          <mxGeometry x="290" y="1020" width="140" height="70" as="geometry" />
        </mxCell>
        <mxCell id="JztDZaQOo3jZukqDv95O-81" value="&amp;lt;&amp;lt;include&amp;gt;&amp;gt;" style="endArrow=open;endSize=12;dashed=1;html=1;rounded=0;exitX=0.679;exitY=1;exitDx=0;exitDy=0;exitPerimeter=0;entryX=0.5;entryY=0;entryDx=0;entryDy=0;" parent="1" source="JztDZaQOo3jZukqDv95O-66" target="JztDZaQOo3jZukqDv95O-80" edge="1">
          <mxGeometry width="160" relative="1" as="geometry">
            <mxPoint x="200" y="990" as="sourcePoint" />
            <mxPoint x="360" y="990" as="targetPoint" />
          </mxGeometry>
        </mxCell>
        <mxCell id="JztDZaQOo3jZukqDv95O-52" value="&#xa;Sharing and Community&#xa;&#xa;" style="ellipse;whiteSpace=wrap;html=1;fontColor=#000000;labelBackgroundColor=none;fillColor=#FF3333;" parent="1" vertex="1">
          <mxGeometry x="260" y="530" width="140" height="70" as="geometry" />
        </mxCell>
        <mxCell id="JztDZaQOo3jZukqDv95O-77" value="add table" style="ellipse;whiteSpace=wrap;html=1;fillColor=#FFCE9F;" parent="1" vertex="1">
          <mxGeometry x="490" y="810" width="140" height="70" as="geometry" />
        </mxCell>
      </root>
    </mxGraphModel>
  </diagram>
</mxfile>
